<svg width="64" height="64" viewBox="0 0 16.933 16.933" xmlns="http://www.w3.org/2000/svg"><path style="fill:#000;stroke:none;stroke-width:.0218201;stroke-opacity:1" d="m2.06 8.91 1.62-3.934.012 2.351C3.15 7.851 2.623 8.45 2.06 8.91Zm3.976 6.207-2.42-1.007-2-4.828 2-4.848c1.62-.669 3.236-1.347 4.861-2.004 1.616.656 3.227 1.328 4.831 2.014.688 1.598 1.341 3.211 2.01 4.817L13.32 14.11l-4.863 2.014-2.42-1.006Zm1.333-.228-.873-.873-2.466.002c1.397.58 2.79 1.17 4.19 1.742-.274-.3-.566-.582-.851-.871Zm3.436 0 2.08-.862-2.46-.012c-.575.58-1.16 1.151-1.723 1.743.702-.288 1.402-.58 2.103-.87zm3.285-3.284c.286-.695.573-1.389.856-2.084-.595.555-1.16 1.141-1.74 1.713.005.818-.013 1.637.02 2.455.292-.693.576-1.39.864-2.084zM2.84 10.36c-.22-.173-.738-.838-.81-.712.556 1.348 1.115 2.694 1.673 4.041l.011-2.456-.874-.873Zm.869-4.27-.006-1.236c-.573 1.39-1.148 2.78-1.719 4.173.597-.546 1.154-1.133 1.73-1.7L3.71 6.09Zm11.244 2.923a763.336 763.336 0 0 0-1.738-4.182c-.016.824-.007 1.649-.01 2.473.588.586 1.171 1.176 1.762 1.758l-.014-.05zM7.38 3.66c.174-.225.89-.778.693-.81a676.37 676.37 0 0 0-4.032 1.675c.818.034 1.637.014 2.455.02l.884-.885Zm5.54.876A477.28 477.28 0 0 0 8.692 2.78c.575.598 1.168 1.178 1.753 1.767.825-.002 1.65.007 2.475-.009zM2.874 11.621c-.272-.658-.546-1.316-.815-1.975.557.523 1.09 1.073 1.634 1.61L3.68 13.57l-.807-1.95Zm3.243 3.24-1.95-.812 2.307-.012c.539.545 1.092 1.077 1.615 1.636-.66-.264-1.315-.54-1.972-.812Zm3.478.008.83-.832 2.338.012c-1.324.548-2.647 1.1-3.972 1.644.26-.283.535-.55.804-.824zm3.633-2.448v-1.187c.548-.54 1.08-1.098 1.649-1.615a617.005 617.005 0 0 1-1.641 3.98c-.01-.392-.007-.785-.008-1.178zm.822-4.314-.823-.823.012-2.342c.547 1.327 1.104 2.65 1.64 3.982-.282-.266-.553-.544-.829-.817ZM9.638 3.695c-.226-.248-.675-.636-.766-.812 1.29.538 2.631 1.065 3.884 1.624-.762.03-1.526.011-2.289.017l-.829-.829Zm-5.508.82A694.49 694.49 0 0 1 8.144 2.85c-.534.573-1.098 1.117-1.648 1.674-.788-.002-1.577.006-2.366-.008Zm-.423.013 4.77-1.976 4.749 1.976 1.96 4.734-1.96 4.754-4.77 1.976-4.749-1.976-1.96-4.733 1.96-4.755Zm-1.96 4.755 6.73-6.731 6.71 6.71-6.731 6.73-6.71-6.71Zm1.96-4.755h9.519v9.488H3.707V4.528z"/><circle style="fill:#999;stroke-width:.215472" cx="8.467" cy="9.277" r="4.391"/><circle style="fill:#fff;stroke-width:.215472" cx="12.328" cy="5.44" r=".607"/><path style="fill:#fff;stroke:none;stroke-width:.499999;stroke-miterlimit:4;stroke-dasharray:none;stroke-opacity:1" d="M15.565 8.819a7.115 7.115 0 0 1 .016.458 7.115 7.115 0 0 1-.016.457h1.355a8.467 8.467 0 0 0 .013-.457 8.467 8.467 0 0 0-.013-.458zm-1.44-5.839-.957.957a7.115 7.115 0 0 1 .647.648l.958-.957a8.467 8.467 0 0 0-.648-.649ZM8.467.81a8.467 8.467 0 0 0-.458.017V2.18a7.115 7.115 0 0 1 .458-.02 7.115 7.115 0 0 1 .458.016V.823A8.467 8.467 0 0 0 8.467.81Zm5.353 13.152a7.115 7.115 0 0 1-.647.65l.958.957a8.467 8.467 0 0 0 .647-.649zM3.118 13.96l-.958.959a8.467 8.467 0 0 0 .647.649l.957-.958a7.115 7.115 0 0 1-.646-.65zM.017 8.819A8.467 8.467 0 0 0 0 9.277a8.467 8.467 0 0 0 .017.457h1.354a7.115 7.115 0 0 1-.02-.457 7.115 7.115 0 0 1 .02-.458zm2.794-5.838a8.467 8.467 0 0 0-.647.649l.958.958a7.115 7.115 0 0 1 .647-.65z"/></svg>