<?xml version="1.0" encoding="UTF-8" standalone="no"?>
<!-- Created with Inkscape (http://www.inkscape.org/) -->

<svg
   width="64"
   height="64"
   viewBox="0 0 16.933333 16.933333"
   version="1.1"
   id="svg5"
   xmlns="http://www.w3.org/2000/svg"
   xmlns:svg="http://www.w3.org/2000/svg">
  <defs
     id="defs2" />
  <g
     id="layer1">
    <path
       id="path3469"
       style="fill:#000000;stroke:none;stroke-width:0.0218201;stroke-opacity:1"
       d="M 2.0596552,8.9100728 C 2.599119,7.5983898 3.1406991,6.2875777 3.6813234,4.9763725 3.6850913,5.7600774 3.6888591,6.5437822 3.692627,7.3274871 3.1499003,7.851491 2.6239436,8.4489856 2.0596552,8.9100728 Z M 6.0359783,15.116847 C 5.2292732,14.781297 4.4225682,14.445747 3.6158631,14.110197 2.9489668,12.500942 2.2820706,10.891687 1.6151745,9.2824317 2.2820708,7.6662611 2.948967,6.0500904 3.6158631,4.4339197 5.2360501,3.7652225 6.8524553,3.0871895 8.4771332,2.4295041 10.093493,3.0861235 11.704127,3.7577922 13.30811,4.444092 13.996203,6.0421382 14.649159,7.6551914 15.318159,9.2613503 14.651815,10.877254 13.985471,12.493157 13.319127,14.10906 11.698116,14.780539 10.077104,15.452019 8.4560932,16.123499 7.6493882,15.787948 6.8426833,15.452398 6.0359783,15.116847 Z M 7.3689198,14.88878 C 7.0780534,14.597845 6.7871871,14.306911 6.4963207,14.015976 c -0.8219586,5.19e-4 -1.6439171,10e-4 -2.4658757,0.0016 1.396248,0.581212 2.7894242,1.169929 4.1893562,1.742193 C 7.9458098,15.460429 7.6537295,15.177728 7.3689198,14.88878 Z m 3.4362262,0 c 0.693084,-0.287298 1.386168,-0.574595 2.079252,-0.861893 -0.820076,-0.0038 -1.640152,-0.0076 -2.460228,-0.0114 -0.5745857,0.580405 -1.1596031,1.150803 -1.7221594,1.742871 0.701669,-0.288194 1.4024224,-0.579782 2.1031354,-0.869578 z m 3.284593,-3.283925 c 0.285769,-0.694475 0.572798,-1.388438 0.856352,-2.0838195 -0.595087,0.5551795 -1.160913,1.1411055 -1.740295,1.7126735 0.0056,0.818275 -0.01316,1.637385 0.01996,2.454966 0.291927,-0.692952 0.576646,-1.388958 0.863981,-2.08382 z M 2.8402937,10.361327 C 2.6204812,10.187875 2.1017135,9.5231624 2.0303138,9.6489351 c 0.5558623,1.3477659 1.1150375,2.6941619 1.6728297,4.0411299 0.00376,-0.818572 0.00752,-1.637143 0.01128,-2.455715 C 3.4230469,10.943343 3.1316703,10.652335 2.8402937,10.361327 Z M 3.7087812,6.0912905 C 3.7069018,5.6791599 3.7050225,5.2670292 3.7031431,4.8548986 3.1299539,6.2457911 2.5549744,7.6359487 1.9839601,9.0277352 2.5806179,8.4821567 3.1384572,7.8951447 3.7144183,7.327683 3.7125393,6.9155522 3.7106602,6.5034213 3.7087812,6.0912905 Z M 14.952868,9.0137181 C 14.377628,7.618138 13.79875,6.2240276 13.215242,4.8318874 c -0.01618,0.8242249 -0.007,1.6487788 -0.0094,2.473155 0.58681,0.5861343 1.17043,1.1754929 1.761069,1.757771 l -0.014,-0.049095 z M 7.3799309,3.6611413 C 7.5540067,3.4361149 8.2706947,2.8834308 8.0731367,2.8516577 6.7278105,3.406302 5.3830699,3.9624537 4.0413549,4.5257683 4.8588636,4.5599068 5.6780508,4.5401729 6.4963177,4.5460528 6.7908554,4.2510823 7.0853932,3.9561118 7.3799309,3.6611413 Z M 12.920316,4.5370708 C 11.513733,3.9441759 10.104226,3.3579972 8.6920193,2.7786256 c 0.5747965,0.5985463 1.1683881,1.1787982 1.7533317,1.7674278 0.824972,-0.00233 1.650149,0.00645 2.474965,-0.00898 z M 2.8739801,11.620907 C 2.6018749,10.962667 2.3280859,10.305111 2.0588304,9.6457012 2.6163593,10.16904 3.1486193,10.718799 3.6926212,11.256193 c -0.00377,0.771149 -0.00753,1.542297 -0.0113,2.313446 C 3.4122075,12.920062 3.1430938,12.270484 2.8739801,11.620907 Z m 3.2430216,3.239814 C 5.4669479,14.590049 4.816894,14.319378 4.1668402,14.048706 c 0.7689974,-0.0038 1.5379948,-0.0076 2.3069922,-0.0114 0.5390457,0.544657 1.0917962,1.076324 1.6151143,1.636114 C 7.4290545,15.409067 6.773697,15.132341 6.1170017,14.860721 Z m 3.4777958,0.0084 c 0.2764635,-0.277235 0.5529265,-0.554471 0.8293905,-0.831706 0.779753,0.0038 1.559507,0.0076 2.33926,0.0114 -1.324185,0.548296 -2.64725,1.099313 -3.9727944,1.644312 0.2594219,-0.282705 0.5352245,-0.55044 0.8041439,-0.824006 z m 3.6328175,-2.447932 c 0,-0.395828 0,-0.791656 0,-1.187484 0.548872,-0.538898 1.079633,-1.097457 1.649095,-1.6144733 -0.542437,1.3286383 -1.089253,2.6555313 -1.640947,3.9803503 -0.01033,-0.392627 -0.0064,-0.785728 -0.0081,-1.178393 z M 14.050169,8.1070362 C 13.775857,7.8326523 13.501544,7.5582685 13.227232,7.2838846 c 0.0038,-0.7807533 0.0076,-1.5615066 0.0114,-2.3422599 0.547523,1.3271988 1.104101,2.6507473 1.64069,3.9823899 C 14.597366,8.657512 14.325693,8.3801279 14.050169,8.1070362 Z M 9.6382097,3.6950695 C 9.41183,3.4467444 8.9629675,3.0588693 8.8723893,2.8826428 10.162764,3.4210289 11.503452,3.9482816 12.755888,4.507296 11.993721,4.5372513 11.23002,4.5180219 10.467159,4.5242257 10.190843,4.2478403 9.9145261,3.9714549 9.6382097,3.6950695 Z M 4.1304538,4.5157192 C 5.4663588,3.9561976 6.8041526,3.4011041 8.1435332,2.8499511 7.6098528,3.4227085 7.0460154,3.9667991 6.4963283,4.5242333 5.70772,4.5219994 4.9189183,4.5304217 4.1304538,4.5157192 Z m -0.4232191,0.012009 c 1.5899333,-0.658572 3.1798667,-1.3171441 4.7698,-1.9757161 1.5829023,0.658572 3.1658043,1.3171441 4.7487063,1.9757161 0.6536,1.5779298 1.307199,3.1558596 1.960799,4.7337894 -0.6536,1.5849614 -1.307199,3.1699234 -1.960799,4.7548844 -1.589934,0.658572 -3.179867,1.317145 -4.7698007,1.975717 C 6.8730384,15.333547 5.2901366,14.674974 3.7072347,14.016402 3.0536347,12.438472 2.4000348,10.860542 1.7464348,9.2826116 2.4000348,7.6976503 3.0536347,6.1126891 3.7072347,4.5277282 Z M 1.7464346,9.2826116 C 3.9899679,7.0390783 6.2335012,4.7955451 8.4770345,2.5520118 10.713537,4.7885137 12.950039,7.0250155 15.186541,9.2615174 12.943007,11.505052 10.699474,13.748586 8.4559404,15.99212 6.2194385,13.755617 3.9829365,11.519115 1.7464346,9.2826116 Z M 3.7072347,4.5277279 c 3.1728354,0 6.3456713,0 9.5185063,0 0,3.1628913 0,6.3257831 0,9.4886741 -3.172835,0 -6.3456709,0 -9.5185063,0 0,-3.162891 0,-6.3257828 0,-9.4886741 z" />
    <circle
       style="fill:#999999;stroke-width:0.215472"
       id="path4798"
       cx="8.4666662"
       cy="9.2765017"
       r="4.3905005" />
    <circle
       style="fill:#ffffff;stroke-width:0.215472"
       id="path4904"
       cx="12.327657"
       cy="5.4402852"
       r="0.60661405" />
    <path
       id="path6643"
       style="fill:#ffffff;stroke:none;stroke-width:0.499999;stroke-miterlimit:4;stroke-dasharray:none;stroke-opacity:1"
       d="m 15.564941,8.818648 a 7.1146674,7.1146674 0 0 1 0.01654,0.4578532 7.1146674,7.1146674 0 0 1 -0.01654,0.4578533 h 1.354956 a 8.466666,8.466666 0 0 0 0.01344,-0.4578533 8.466666,8.466666 0 0 0 -0.01344,-0.4578532 z" />
    <path
       id="path6643-0"
       style="fill:#ffffff;stroke:none;stroke-width:0.499999;stroke-miterlimit:4;stroke-dasharray:none;stroke-opacity:1"
       d="m 14.125236,2.9792113 -0.957564,0.9575641 a 7.1146674,7.1146674 0 0 1 0.647505,0.6485393 L 14.772741,3.6277506 A 8.4666658,8.4666658 0 0 0 14.125236,2.9792113 Z" />
    <path
       id="path6643-9"
       style="fill:#ffffff;stroke:none;stroke-width:0.499999;stroke-miterlimit:4;stroke-dasharray:none;stroke-opacity:1"
       d="M 8.4666666,0.80983467 A 8.4666658,8.4666658 0 0 0 8.0088133,0.82688789 V 2.1808104 a 7.1146674,7.1146674 0 0 1 0.4578533,-0.01912 7.1146674,7.1146674 0 0 1 0.4578532,0.015503 V 0.82275378 A 8.4666658,8.4666658 0 0 0 8.4666666,0.80983467 Z" />
    <path
       id="path6643-9-3"
       style="fill:#ffffff;stroke:none;stroke-width:0.499999;stroke-miterlimit:4;stroke-dasharray:none;stroke-opacity:1"
       d="m 13.819828,13.962003 a 7.1146674,7.1146674 0 0 1 -0.646472,0.649056 l 0.957564,0.957565 a 8.4666658,8.4666658 0 0 0 0.646989,-0.64854 z" />
    <path
       id="path6643-9-3-62"
       style="fill:#ffffff;stroke:none;stroke-width:0.499999;stroke-miterlimit:4;stroke-dasharray:none;stroke-opacity:1"
       d="m 3.1176391,13.960453 -0.958081,0.958081 A 8.4666658,8.4666658 0 0 0 2.806547,15.56759 l 0.9575641,-0.957564 a 7.1146674,7.1146674 0 0 1 -0.646472,-0.649573 z" />
    <path
       id="path6643-9-3-0"
       style="fill:#ffffff;stroke:none;stroke-width:0.499999;stroke-miterlimit:4;stroke-dasharray:none;stroke-opacity:1"
       d="M 0.01705322,8.818648 A 8.4666658,8.4666658 0 0 0 0,9.2765012 8.4666658,8.4666658 0 0 0 0.01705322,9.7343545 H 1.3709757 a 7.1146674,7.1146674 0 0 1 -0.01912,-0.4578533 7.1146674,7.1146674 0 0 1 0.01912,-0.4578532 z" />
    <path
       id="path6643-9-3-6"
       style="fill:#ffffff;stroke:none;stroke-width:0.499999;stroke-miterlimit:4;stroke-dasharray:none;stroke-opacity:1"
       d="M 2.8111979,2.9812783 A 8.4666658,8.4666658 0 0 0 2.1636922,3.6298175 l 0.958081,0.9580811 a 7.1146674,7.1146674 0 0 1 0.6469891,-0.649056 z" />
  </g>
</svg>
