<?xml version="1.0" encoding="UTF-8" standalone="no"?>
<svg
   version="1.1"
   width="75"
   height="75"
   id="svg26"
   sodipodi:docname="favicon.svg"
   inkscape:version="1.1.2 (0a00cf5339, 2022-02-04)"
   xmlns:inkscape="http://www.inkscape.org/namespaces/inkscape"
   xmlns:sodipodi="http://sodipodi.sourceforge.net/DTD/sodipodi-0.dtd"
   xmlns="http://www.w3.org/2000/svg"
   xmlns:svg="http://www.w3.org/2000/svg">
  <defs
     id="defs30" />
  <sodipodi:namedview
     id="namedview28"
     pagecolor="#2f2f2f"
     bordercolor="#666666"
     borderopacity="1.0"
     inkscape:pageshadow="2"
     inkscape:pageopacity="0"
     inkscape:pagecheckerboard="true"
     showgrid="false"
     inkscape:zoom="9.5866667"
     inkscape:cx="27.068846"
     inkscape:cy="33.379694"
     inkscape:window-width="1920"
     inkscape:window-height="1131"
     inkscape:window-x="0"
     inkscape:window-y="0"
     inkscape:window-maximized="1"
     inkscape:current-layer="svg26"
     inkscape:snap-object-midpoints="true"
     inkscape:snap-page="true" />
  <g
     id="dial"
     stroke="#ffffff"
     stroke-width="11.25"
     transform="matrix(0.41666668,0,0,0.41666668,37.5,40.625)">
    <line
       x1="76.875"
       x2="90"
       y1="0"
       y2="0"
       id="line4" />
    <line
       x1="54.908009"
       x2="68.033012"
       y1="54.908009"
       y2="68.033012"
       id="line6" />
    <line
       x1="-54.908009"
       x2="-68.033012"
       y1="54.908009"
       y2="68.033012"
       id="line8" />
    <line
       x1="-76.875"
       x2="-90"
       y1="0"
       y2="0"
       id="line10" />
    <line
       x1="-54.908009"
       x2="-68.033012"
       y1="-54.908009"
       y2="-68.033012"
       id="line12" />
    <line
       x1="0"
       x2="0"
       y1="-76.875"
       y2="-90"
       id="line14" />
    <line
       x1="54.908009"
       x2="68.033012"
       y1="-54.908009"
       y2="-68.033012"
       id="line16" />
  </g>
  <g
     id="g209"
     transform="rotate(180,37.5,40.625)">
    <g
       id="g203"
       transform="rotate(90,37.5,40.625)">
      <polygon
         fill="#000000"
         points="-53.033009,53.033009 -75,0 -53.033009,-53.033009 0,-75 53.033009,-53.033009 75,0 53.033009,53.033009 0,75 "
         transform="matrix(0.41666668,0,0,0.41666668,37.5,40.625)"
         id="polygon19" />
    </g>
    <circle
       cx="37.5"
       cy="40.625"
       r="19.53125"
       fill="#999999"
       id="circle21"
       style="stroke-width:1.04167" />
    <circle
       cx="19.921875"
       cy="58.203125"
       r="3.125"
       fill="#ffffff"
       id="circle23"
       style="stroke-width:1.04167" />
  </g>
</svg>
