<?xml version="1.0" encoding="UTF-8" standalone="no"?>
<!-- Created with Inkscape (http://www.inkscape.org/) -->

<svg
   width="64"
   height="64"
   viewBox="0 0 16.933333 16.933333"
   version="1.1"
   id="svg5"
   sodipodi:docname="knob.svg"
   inkscape:version="1.1.2 (0a00cf5339, 2022-02-04)"
   xmlns:inkscape="http://www.inkscape.org/namespaces/inkscape"
   xmlns:sodipodi="http://sodipodi.sourceforge.net/DTD/sodipodi-0.dtd"
   xmlns="http://www.w3.org/2000/svg"
   xmlns:svg="http://www.w3.org/2000/svg">
  <sodipodi:namedview
     id="namedview9169"
     pagecolor="#2f2f2f"
     bordercolor="#666666"
     borderopacity="1.0"
     inkscape:pageshadow="2"
     inkscape:pageopacity="0"
     inkscape:pagecheckerboard="true"
     showgrid="false"
     inkscape:zoom="11.234375"
     inkscape:cx="27.682893"
     inkscape:cy="27.059805"
     inkscape:window-width="2560"
     inkscape:window-height="1371"
     inkscape:window-x="0"
     inkscape:window-y="0"
     inkscape:window-maximized="1"
     inkscape:current-layer="svg5" />
  <defs
     id="defs2" />
  <g
     id="knob">
    <path
       id="path3469"
       style="fill:#000000;stroke:none;stroke-width:0.0218201;stroke-opacity:1"
       d="M 2.0596552,8.1002381 C 2.599119,6.7885551 3.1406991,5.477743 3.6813234,4.1665378 3.6850913,4.9502427 3.6888591,5.7339475 3.692627,6.5176524 3.1499003,7.0416563 2.6239436,7.6391509 2.0596552,8.1002381 Z M 6.0359783,14.307012 C 5.2292732,13.971462 4.4225682,13.635912 3.6158631,13.300362 2.9489668,11.691107 2.2820706,10.081852 1.6151745,8.472597 2.2820708,6.8564264 2.948967,5.2402557 3.6158631,3.624085 5.2360501,2.9553878 6.8524553,2.2773548 8.4771332,1.6196694 10.093493,2.2762888 11.704127,2.9479575 13.30811,3.6342573 c 0.688093,1.5980462 1.341049,3.2110994 2.010049,4.8172583 -0.666344,1.6159034 -1.332688,3.2318064 -1.999032,4.8477094 -1.621011,0.671479 -3.242023,1.342959 -4.8630338,2.014439 C 7.6493882,14.978113 6.8426833,14.642563 6.0359783,14.307012 Z M 7.3689198,14.078945 C 7.0780534,13.78801 6.7871871,13.497076 6.4963207,13.206141 c -0.8219586,5.19e-4 -1.6439171,10e-4 -2.4658757,0.0016 1.396248,0.581212 2.7894242,1.169929 4.1893562,1.742193 -0.2739914,-0.29934 -0.5660717,-0.582041 -0.8508814,-0.870989 z m 3.4362262,0 c 0.693084,-0.287298 1.386168,-0.574595 2.079252,-0.861893 -0.820076,-0.0038 -1.640152,-0.0076 -2.460228,-0.0114 -0.5745857,0.580405 -1.1596031,1.150803 -1.7221594,1.742871 0.701669,-0.288194 1.4024224,-0.579782 2.1031354,-0.869578 z m 3.284593,-3.283925 c 0.285769,-0.694475 0.572798,-1.3884375 0.856352,-2.0838192 -0.595087,0.5551794 -1.160913,1.1411052 -1.740295,1.7126732 0.0056,0.818275 -0.01316,1.637385 0.01996,2.454966 0.291927,-0.692952 0.576646,-1.388958 0.863981,-2.08382 z M 2.8402937,9.5514925 C 2.6204812,9.3780401 2.1017135,8.7133277 2.0303138,8.8391004 2.5861761,10.186866 3.1453513,11.533262 3.7031435,12.88023 c 0.00376,-0.818572 0.00752,-1.637143 0.01128,-2.455715 C 3.4230469,10.133508 3.1316703,9.8425 2.8402937,9.5514925 Z M 3.7087812,5.2814558 C 3.7069018,4.8693252 3.7050225,4.4571945 3.7031431,4.0450639 3.1299539,5.4359564 2.5549744,6.826114 1.9839601,8.2179005 2.5806179,7.672322 3.1384572,7.08531 3.7144183,6.5178483 3.7125393,6.1057175 3.7106602,5.6935866 3.7087812,5.2814558 Z M 14.952868,8.2038834 C 14.377628,6.8083033 13.79875,5.4141929 13.215242,4.0220527 c -0.01618,0.8242249 -0.007,1.6487788 -0.0094,2.473155 0.58681,0.5861343 1.17043,1.1754929 1.761069,1.757771 l -0.014,-0.049095 z M 7.3799309,2.8513066 C 7.5540067,2.6262802 8.2706947,2.0735961 8.0731367,2.041823 6.7278105,2.5964673 5.3830699,3.152619 4.0413549,3.7159336 4.8588636,3.7500721 5.6780508,3.7303382 6.4963177,3.7362181 6.7908554,3.4412476 7.0853932,3.1462771 7.3799309,2.8513066 Z M 12.920316,3.7272361 C 11.513733,3.1343412 10.104226,2.5481625 8.6920193,1.9687909 c 0.5747965,0.5985463 1.1683881,1.1787982 1.7533317,1.7674278 0.824972,-0.00233 1.650149,0.00645 2.474965,-0.00898 z M 2.8739801,10.811072 C 2.6018749,10.152832 2.3280859,9.4952768 2.0588304,8.8358665 c 0.5575289,0.5233389 1.0897889,1.073098 1.6337908,1.6104915 -0.00377,0.771149 -0.00753,1.542297 -0.0113,2.313446 C 3.4122075,12.110227 3.1430938,11.460649 2.8739801,10.811072 Z m 3.2430216,3.239814 C 5.4669479,13.780214 4.816894,13.509543 4.1668402,13.238871 c 0.7689974,-0.0038 1.5379948,-0.0076 2.3069922,-0.0114 0.5390457,0.544657 1.0917962,1.076324 1.6151143,1.636114 C 7.4290545,14.599232 6.773697,14.322506 6.1170017,14.050886 Z m 3.4777958,0.0084 c 0.2764635,-0.277235 0.5529265,-0.554471 0.8293905,-0.831706 0.779753,0.0038 1.559507,0.0076 2.33926,0.0114 -1.324185,0.548296 -2.64725,1.099313 -3.9727944,1.644312 0.2594219,-0.282705 0.5352245,-0.55044 0.8041439,-0.824006 z m 3.6328175,-2.447932 c 0,-0.395828 0,-0.791656 0,-1.187484 0.548872,-0.5388972 1.079633,-1.0974562 1.649095,-1.614473 -0.542437,1.328638 -1.089253,2.655531 -1.640947,3.98035 -0.01033,-0.392627 -0.0064,-0.785728 -0.0081,-1.178393 z M 14.050169,7.2972015 C 13.775857,7.0228176 13.501544,6.7484338 13.227232,6.4740499 c 0.0038,-0.7807533 0.0076,-1.5615066 0.0114,-2.3422599 0.547523,1.3271988 1.104101,2.6507473 1.64069,3.9823899 C 14.597366,7.8476773 14.325693,7.5702932 14.050169,7.2972015 Z M 9.6382097,2.8852348 C 9.41183,2.6369097 8.9629675,2.2490346 8.8723893,2.0728081 10.162764,2.6111942 11.503452,3.1384469 12.755888,3.6974613 11.993721,3.7274166 11.23002,3.7081872 10.467159,3.714391 10.190843,3.4380056 9.9145261,3.1616202 9.6382097,2.8852348 Z M 4.1304538,3.7058845 C 5.4663588,3.1463629 6.8041526,2.5912694 8.1435332,2.0401164 7.6098528,2.6128738 7.0460154,3.1569644 6.4963283,3.7143986 5.70772,3.7121647 4.9189183,3.720587 4.1304538,3.7058845 Z m -0.4232191,0.012009 c 1.5899333,-0.658572 3.1798667,-1.3171441 4.7698,-1.9757161 1.5829023,0.658572 3.1658043,1.3171441 4.7487063,1.9757161 0.6536,1.5779298 1.307199,3.1558596 1.960799,4.7337894 -0.6536,1.5849611 -1.307199,3.1699231 -1.960799,4.7548841 -1.589934,0.658572 -3.179867,1.317145 -4.7698007,1.975717 C 6.8730384,14.523712 5.2901366,13.865139 3.7072347,13.206567 3.0536347,11.628637 2.4000348,10.050707 1.7464348,8.4727769 2.4000348,6.8878156 3.0536347,5.3028544 3.7072347,3.7178935 Z M 1.7464346,8.4727769 C 3.9899679,6.2292436 6.2335012,3.9857104 8.4770345,1.7421771 10.713537,3.978679 12.950039,6.2151808 15.186541,8.4516827 12.943007,10.695217 10.699474,12.938751 8.4559404,15.182285 6.2194385,12.945782 3.9829365,10.70928 1.7464346,8.4727769 Z M 3.7072347,3.7178932 c 3.1728354,0 6.3456713,0 9.5185063,0 0,3.1628913 0,6.3257828 0,9.4886738 -3.172835,0 -6.3456709,0 -9.5185063,0 0,-3.162891 0,-6.3257825 0,-9.4886738 z" />
    <circle
       style="fill:#999999;stroke-width:0.215472"
       id="path4798"
       cx="8.4666662"
       cy="8.4666672"
       r="4.3905005" />
    <circle
       style="fill:#ffffff;stroke-width:0.215472"
       id="path4904"
       cx="4.5798578"
       cy="12.346036"
       r="0.60661405" />
  </g>
  <g
     id="dial">
    <path
       id="path6643"
       style="fill:#ffffff;stroke:none;stroke-width:0.499999;stroke-miterlimit:4;stroke-dasharray:none;stroke-opacity:1"
       d="m 15.564941,8.0088133 a 7.1146674,7.1146674 0 0 1 0.01654,0.4578533 7.1146674,7.1146674 0 0 1 -0.01654,0.4578532 h 1.354956 a 8.466666,8.466666 0 0 0 0.01344,-0.4578532 8.466666,8.466666 0 0 0 -0.01344,-0.4578533 z" />
    <path
       id="path6643-0"
       style="fill:#ffffff;stroke:none;stroke-width:0.499999;stroke-miterlimit:4;stroke-dasharray:none;stroke-opacity:1"
       d="M 14.125236,2.1693766 13.167672,3.1269408 A 7.1146674,7.1146674 0 0 1 13.815177,3.77548 L 14.772741,2.8179159 A 8.4666658,8.4666658 0 0 0 14.125236,2.1693766 Z" />
    <path
       id="path6643-9"
       style="fill:#ffffff;stroke:none;stroke-width:0.499999;stroke-miterlimit:4;stroke-dasharray:none;stroke-opacity:1"
       d="M 8.4666666,0 A 8.4666658,8.4666658 0 0 0 8.0088133,0.01705322 V 1.3709757 a 7.1146674,7.1146674 0 0 1 0.4578533,-0.01912 7.1146674,7.1146674 0 0 1 0.4578532,0.015503 V 0.01291911 A 8.4666658,8.4666658 0 0 0 8.4666666,0 Z" />
    <path
       id="path6643-9-3"
       style="fill:#ffffff;stroke:none;stroke-width:0.499999;stroke-miterlimit:4;stroke-dasharray:none;stroke-opacity:1"
       d="m 13.819828,13.152169 a 7.1146674,7.1146674 0 0 1 -0.646472,0.649055 l 0.957564,0.957565 a 8.4666658,8.4666658 0 0 0 0.646989,-0.648539 z" />
    <path
       id="path6643-9-3-62"
       style="fill:#ffffff;stroke:none;stroke-width:0.499999;stroke-miterlimit:4;stroke-dasharray:none;stroke-opacity:1"
       d="m 3.1176391,13.150618 -0.958081,0.958081 a 8.4666658,8.4666658 0 0 0 0.6469889,0.649056 l 0.9575641,-0.957564 a 7.1146674,7.1146674 0 0 1 -0.646472,-0.649573 z" />
    <path
       id="path6643-9-3-0"
       style="fill:#ffffff;stroke:none;stroke-width:0.499999;stroke-miterlimit:4;stroke-dasharray:none;stroke-opacity:1"
       d="M 0.01705322,8.0088133 A 8.4666658,8.4666658 0 0 0 0,8.4666666 8.4666658,8.4666658 0 0 0 0.01705322,8.9245198 H 1.3709757 a 7.1146674,7.1146674 0 0 1 -0.01912,-0.4578532 7.1146674,7.1146674 0 0 1 0.01912,-0.4578533 z" />
    <path
       id="path6643-9-3-6"
       style="fill:#ffffff;stroke:none;stroke-width:0.499999;stroke-miterlimit:4;stroke-dasharray:none;stroke-opacity:1"
       d="M 2.8111979,2.1714436 A 8.4666658,8.4666658 0 0 0 2.1636922,2.8199828 L 3.1217732,3.778064 A 7.1146674,7.1146674 0 0 1 3.7687623,3.129008 Z" />
  </g>
</svg>
