<svg width="64" height="64" version="1.1" viewBox="0 0 16.933 16.933" xmlns="http://www.w3.org/2000/svg">
 <g id="knob">
  <path d="m2.0597 8.1002c0.53946-1.3117 1.081-2.6225 1.6217-3.9337 0.0037679 0.7837 0.0075357 1.5674 0.011304 2.3511-0.54273 0.524-1.0687 1.1215-1.633 1.5826zm3.9763 6.2068c-0.80671-0.33555-1.6134-0.6711-2.4201-1.0066-0.6669-1.6093-1.3338-3.2185-2.0007-4.8278 0.6669-1.6162 1.3338-3.2323 2.0007-4.8485 1.6202-0.6687 3.2366-1.3467 4.8613-2.0044 1.6164 0.65662 3.227 1.3283 4.831 2.0146 0.68809 1.598 1.341 3.2111 2.01 4.8173-0.66634 1.6159-1.3327 3.2318-1.999 4.8477-1.621 0.67148-3.242 1.343-4.863 2.0144-0.8067-0.33555-1.6134-0.6711-2.4201-1.0067zm1.3329-0.22807c-0.29087-0.29094-0.58173-0.58187-0.8726-0.8728-0.82196 5.19e-4 -1.6439 1e-3 -2.4659 0.0016 1.3962 0.58121 2.7894 1.1699 4.1894 1.7422-0.27399-0.29934-0.56607-0.58204-0.85088-0.87099zm3.4362 0c0.69308-0.2873 1.3862-0.5746 2.0793-0.86189-0.82008-0.0038-1.6402-0.0076-2.4602-0.0114-0.57459 0.5804-1.1596 1.1508-1.7222 1.7429 0.70167-0.28819 1.4024-0.57978 2.1031-0.86958zm3.2846-3.2839c0.28577-0.69448 0.5728-1.3884 0.85635-2.0838-0.59509 0.55518-1.1609 1.1411-1.7403 1.7127 0.0056 0.81828-0.01316 1.6374 0.01996 2.455 0.29193-0.69295 0.57665-1.389 0.86398-2.0838zm-11.249-1.2435c-0.21981-0.17345-0.73858-0.83816-0.80998-0.71239 0.55586 1.3478 1.115 2.6942 1.6728 4.0411 0.00376-0.81857 0.00752-1.6371 0.01128-2.4557-0.29138-0.29101-0.58275-0.58202-0.87413-0.87302zm0.86849-4.27c-0.0018794-0.41213-0.0037587-0.82426-0.0056381-1.2364-0.57319 1.3909-1.1482 2.7811-1.7192 4.1728 0.59666-0.54558 1.1545-1.1326 1.7305-1.7001-0.001879-0.41213-0.0037581-0.82426-0.0056371-1.2364zm11.244 2.9224c-0.57524-1.3956-1.1541-2.7897-1.7376-4.1818-0.01618 0.82422-7e-3 1.6488-0.0094 2.4732 0.58681 0.58613 1.1704 1.1755 1.7611 1.7578l-0.014-0.049095zm-7.5729-5.3526c0.17408-0.22503 0.89076-0.77771 0.69321-0.80948-1.3453 0.55464-2.6901 1.1108-4.0318 1.6741 0.81751 0.034138 1.6367 0.014405 2.455 0.020284 0.29454-0.29497 0.58908-0.58994 0.88361-0.88491zm5.5404 0.87593c-1.4066-0.59289-2.8161-1.1791-4.2283-1.7584 0.5748 0.59855 1.1684 1.1788 1.7533 1.7674 0.82497-0.00233 1.6501 0.00645 2.475-0.00898zm-10.046 7.0838c-0.27211-0.65824-0.54589-1.3158-0.81515-1.9752 0.55753 0.52334 1.0898 1.0731 1.6338 1.6105-0.00377 0.77115-0.00753 1.5423-0.0113 2.3134-0.26911-0.64958-0.53823-1.2992-0.80734-1.9487zm3.243 3.2398c-0.65005-0.27067-1.3001-0.54134-1.9502-0.81202 0.769-0.0038 1.538-0.0076 2.307-0.0114 0.53905 0.54466 1.0918 1.0763 1.6151 1.6361-0.65989-0.26435-1.3152-0.54108-1.9719-0.8127zm3.4778 0.0084c0.27646-0.27724 0.55293-0.55447 0.82939-0.83171 0.77975 0.0038 1.5595 0.0076 2.3393 0.0114-1.3242 0.5483-2.6472 1.0993-3.9728 1.6443 0.25942-0.2827 0.53522-0.55044 0.80414-0.82401zm3.6328-2.4479v-1.1875c0.54887-0.5389 1.0796-1.0975 1.6491-1.6145-0.54244 1.3286-1.0893 2.6555-1.6409 3.9804-0.01033-0.39263-0.0064-0.78573-0.0081-1.1784zm0.82255-4.3142c-0.27431-0.27438-0.54862-0.54877-0.82294-0.82315 0.0038-0.78075 0.0076-1.5615 0.0114-2.3423 0.54752 1.3272 1.1041 2.6507 1.6407 3.9824-0.28196-0.2665-0.55363-0.54389-0.82915-0.81698zm-4.412-4.412c-0.22638-0.24833-0.67524-0.6362-0.76582-0.81243 1.2904 0.53839 2.6311 1.0656 3.8835 1.6247-0.76217 0.029955-1.5259 0.010726-2.2887 0.01693-0.27632-0.27639-0.55263-0.55277-0.82895-0.82916zm-5.5078 0.82065c1.3359-0.55952 2.6737-1.1146 4.0131-1.6658-0.53368 0.57276-1.0975 1.1168-1.6472 1.6743-0.78861-0.0022339-1.5774 0.0061884-2.3659-0.0085141zm-0.42322 0.012009c1.5899-0.65857 3.1799-1.3171 4.7698-1.9757 1.5829 0.65857 3.1658 1.3171 4.7487 1.9757 0.6536 1.5779 1.3072 3.1559 1.9608 4.7338-0.6536 1.585-1.3072 3.1699-1.9608 4.7549-1.5899 0.65857-3.1799 1.3171-4.7698 1.9757-1.5829-0.65857-3.1658-1.3171-4.7487-1.9757-0.6536-1.5779-1.3072-3.1559-1.9608-4.7338 0.6536-1.585 1.3072-3.1699 1.9608-4.7549zm-1.9608 4.7549c2.2435-2.2435 4.4871-4.4871 6.7306-6.7306 2.2365 2.2365 4.473 4.473 6.7095 6.7095-2.2435 2.2435-4.4871 4.4871-6.7306 6.7306-2.2365-2.2365-4.473-4.473-6.7095-6.7095zm1.9608-4.7549h9.5185v9.4887h-9.5185v-9.4887z"/>
  <circle cx="8.4667" cy="8.4667" r="4.3905" style="fill:#999;stroke-width:.21547"/>
  <circle cx="4.5799" cy="12.346" r=".60661" style="fill:#fff;stroke-width:.21547"/>
 </g>
 <g id="dial">
  <path d="m15.565 8.0088a7.1147 7.1147 0 0 1 0.01654 0.45785 7.1147 7.1147 0 0 1-0.01654 0.45785h1.355a8.4667 8.4667 0 0 0 0.01344-0.45785 8.4667 8.4667 0 0 0-0.01344-0.45785z" style="fill:#fff"/>
  <path d="m14.125 2.1694-0.95756 0.95756a7.1147 7.1147 0 0 1 0.6475 0.64854l0.95756-0.95756a8.4667 8.4667 0 0 0-0.6475-0.64854z" style="fill:#fff"/>
  <path d="m8.4667 0a8.4667 8.4667 0 0 0-0.45785 0.017053v1.3539a7.1147 7.1147 0 0 1 0.45785-0.01912 7.1147 7.1147 0 0 1 0.45785 0.015503v-1.3544a8.4667 8.4667 0 0 0-0.45785-0.012919z" style="fill:#fff"/>
  <path d="m13.82 13.152a7.1147 7.1147 0 0 1-0.64647 0.64906l0.95756 0.95756a8.4667 8.4667 0 0 0 0.64699-0.64854z" style="fill:#fff"/>
  <path d="m3.1176 13.151-0.95808 0.95808a8.4667 8.4667 0 0 0 0.64699 0.64906l0.95756-0.95756a7.1147 7.1147 0 0 1-0.64647-0.64957z" style="fill:#fff"/>
  <path d="m0.017053 8.0088a8.4667 8.4667 0 0 0-0.017053 0.45785 8.4667 8.4667 0 0 0 0.017053 0.45785h1.3539a7.1147 7.1147 0 0 1-0.01912-0.45785 7.1147 7.1147 0 0 1 0.01912-0.45785z" style="fill:#fff"/>
  <path d="m2.8112 2.1714a8.4667 8.4667 0 0 0-0.64751 0.64854l0.95808 0.95808a7.1147 7.1147 0 0 1 0.64699-0.64906z" style="fill:#fff"/>
 </g>
</svg>
